<svg xmlns="http://www.w3.org/2000/svg" width="1200" height="720" viewBox="0 0 1200 720" role="img" aria-label="Secret Tunnel connection screen">
  <rect width="1200" height="720" fill="#eef1f3"/>
  <rect x="0" y="0" width="220" height="720" fill="#152029"/>
  <rect x="18" y="36" width="44" height="44" rx="10" fill="#202c36" stroke="#41515e"/>
  <text x="78" y="56" fill="#f8fafc" font-family="Inter,Arial,sans-serif" font-size="22" font-weight="800">Secret Tunnel</text>
  <text x="78" y="80" fill="#b6c2cc" font-family="Inter,Arial,sans-serif" font-size="15">SSH SOCKS proxy · v0.1.0</text>
  <rect x="18" y="124" width="184" height="220" rx="8" fill="#182631" stroke="#33424d"/>
  <rect x="30" y="140" width="160" height="36" rx="7" fill="#dcfce7"/>
  <circle cx="50" cy="158" r="10" fill="#16a34a"/>
  <text x="66" y="164" fill="#14532d" font-family="Inter,Arial,sans-serif" font-size="16" font-weight="800">Running</text>
  <text x="30" y="214" fill="#8a98a3" font-family="Inter,Arial,sans-serif" font-size="12" font-weight="700">PROXY IP</text>
  <text x="30" y="238" fill="#f8fafc" font-family="Inter,Arial,sans-serif" font-size="18" font-weight="800">••••••••</text>
  <text x="30" y="276" fill="#8a98a3" font-family="Inter,Arial,sans-serif" font-size="12" font-weight="700">TRAFFIC</text>
  <text x="30" y="300" fill="#f8fafc" font-family="Inter,Arial,sans-serif" font-size="17" font-weight="800">↓ 10.1 KB · ↑ 4.4 KB</text>
  <text x="30" y="330" fill="#8a98a3" font-family="Inter,Arial,sans-serif" font-size="12" font-weight="700">SSH ENGINE</text>
  <text x="30" y="352" fill="#f8fafc" font-family="Inter,Arial,sans-serif" font-size="16" font-weight="800">Embedded Rust SSH</text>
  <rect x="18" y="380" width="184" height="38" rx="7" fill="#ffffff"/>
  <text x="54" y="405" fill="#172026" font-family="Inter,Arial,sans-serif" font-size="15" font-weight="700">Connection</text>
  <rect x="18" y="428" width="184" height="38" rx="7" fill="#152029" stroke="#33424d"/>
  <text x="54" y="453" fill="#dbe4eb" font-family="Inter,Arial,sans-serif" font-size="15" font-weight="700">Servers</text>
  <rect x="18" y="476" width="184" height="38" rx="7" fill="#152029" stroke="#33424d"/>
  <text x="54" y="501" fill="#dbe4eb" font-family="Inter,Arial,sans-serif" font-size="15" font-weight="700">Proxy</text>
  <rect x="18" y="524" width="184" height="38" rx="7" fill="#152029" stroke="#33424d"/>
  <text x="54" y="549" fill="#dbe4eb" font-family="Inter,Arial,sans-serif" font-size="15" font-weight="700">Settings</text>

  <rect x="240" y="44" width="920" height="390" rx="10" fill="#ffffff" stroke="#d8dde1"/>
  <text x="260" y="78" fill="#172026" font-family="Inter,Arial,sans-serif" font-size="24" font-weight="900">Connection</text>
  <text x="260" y="104" fill="#64717a" font-family="Inter,Arial,sans-serif" font-size="16">Example server → Local 1080</text>
  <rect x="845" y="58" width="96" height="34" rx="7" fill="#f8fafc" stroke="#166534"/>
  <text x="872" y="80" fill="#166534" font-family="Inter,Arial,sans-serif" font-size="14" font-weight="700">Start</text>
  <rect x="952" y="58" width="108" height="34" rx="7" fill="#fff7f7" stroke="#f1b7b7"/>
  <text x="978" y="80" fill="#991b1b" font-family="Inter,Arial,sans-serif" font-size="14" font-weight="700">Stop</text>
  <rect x="1070" y="58" width="72" height="34" rx="7" fill="#f8fbff" stroke="#b8cdf8"/>
  <text x="1086" y="80" fill="#1d4ed8" font-family="Inter,Arial,sans-serif" font-size="14" font-weight="700">Restart</text>
  <text x="260" y="134" fill="#47535c" font-family="Inter,Arial,sans-serif" font-size="13" font-weight="800">Server</text>
  <rect x="260" y="142" width="430" height="36" rx="6" fill="#fbfcfd" stroke="#c7cdd1"/>
  <text x="276" y="166" fill="#64717a" font-family="Inter,Arial,sans-serif" font-size="14" font-weight="700">Example server</text>
  <text x="710" y="134" fill="#47535c" font-family="Inter,Arial,sans-serif" font-size="13" font-weight="800">Local proxy</text>
  <rect x="710" y="142" width="432" height="36" rx="6" fill="#fbfcfd" stroke="#c7cdd1"/>
  <text x="726" y="166" fill="#64717a" font-family="Inter,Arial,sans-serif" font-size="14" font-weight="700">Local 1080 · 127.0.0.1:1080</text>

  <g font-family="Inter,Arial,sans-serif">
    <rect x="260" y="196" width="123" height="70" rx="7" fill="#fbfcfd" stroke="#d8dde1"/>
    <text x="274" y="218" fill="#64717a" font-size="12" font-weight="900">STATUS</text>
    <circle cx="279" cy="244" r="9" fill="#16a34a"/>
    <text x="294" y="250" fill="#172026" font-size="15" font-weight="900">Running</text>
    <rect x="394" y="196" width="150" height="70" rx="7" fill="#fbfcfd" stroke="#d8dde1"/>
    <text x="408" y="218" fill="#64717a" font-size="12" font-weight="900">SSH ENGINE</text>
    <text x="408" y="250" fill="#172026" font-size="15" font-weight="900">Embedded Rust SSH</text>
    <rect x="555" y="196" width="120" height="70" rx="7" fill="#fbfcfd" stroke="#d8dde1"/>
    <text x="569" y="218" fill="#64717a" font-size="12" font-weight="900">PROXY IP</text>
    <text x="569" y="250" fill="#172026" font-size="15" font-weight="900">••••••••</text>
    <rect x="686" y="196" width="120" height="70" rx="7" fill="#fbfcfd" stroke="#d8dde1"/>
    <text x="700" y="218" fill="#64717a" font-size="12" font-weight="900">COUNTRY</text>
    <text x="700" y="250" fill="#172026" font-size="15" font-weight="900">🇩🇪 Germany</text>
    <rect x="817" y="196" width="95" height="70" rx="7" fill="#fbfcfd" stroke="#d8dde1"/>
    <text x="831" y="218" fill="#64717a" font-size="12" font-weight="900">RX</text>
    <text x="831" y="250" fill="#172026" font-size="15" font-weight="900">10.1 KB</text>
    <rect x="923" y="196" width="95" height="70" rx="7" fill="#fbfcfd" stroke="#d8dde1"/>
    <text x="937" y="218" fill="#64717a" font-size="12" font-weight="900">TX</text>
    <text x="937" y="250" fill="#172026" font-size="15" font-weight="900">4.4 KB</text>
    <rect x="1029" y="196" width="113" height="70" rx="7" fill="#fbfcfd" stroke="#d8dde1"/>
    <text x="1043" y="218" fill="#64717a" font-size="12" font-weight="900">STARTED</text>
    <text x="1043" y="250" fill="#172026" font-size="15" font-weight="900">13:19:37</text>
  </g>

  <rect x="260" y="286" width="882" height="124" rx="7" fill="#ffffff" stroke="#d8dde1"/>
  <line x1="300" y1="374" x2="1100" y2="374" stroke="#cbd5dc"/>
  <line x1="300" y1="328" x2="1100" y2="328" stroke="#e5e9ec"/>
  <line x1="300" y1="304" x2="300" y2="374" stroke="#cbd5dc"/>
  <polyline points="300,306 352,372 520,374 690,371 860,373 1100,372" fill="none" stroke="#16803b" stroke-width="2.5"/>
  <polyline points="300,340 352,373 520,374 690,372 860,373 1100,373" fill="none" stroke="#6d42ff" stroke-width="2.5"/>
  <polyline points="300,374 520,374 740,373 920,373 1100,374" fill="none" stroke="#2563eb" stroke-width="2.5"/>
  <text x="300" y="400" fill="#64717a" font-family="Inter,Arial,sans-serif" font-size="12">13:19:37</text>
  <text x="976" y="400" fill="#64717a" font-family="Inter,Arial,sans-serif" font-size="12">13:19:58</text>

  <rect x="240" y="452" width="920" height="210" rx="10" fill="#ffffff" stroke="#d8dde1"/>
  <text x="260" y="488" fill="#172026" font-family="Inter,Arial,sans-serif" font-size="18" font-weight="900">Runtime logs</text>
  <rect x="260" y="510" width="880" height="128" rx="7" fill="#141f26"/>
  <text x="276" y="540" fill="#e8eef2" font-family="Menlo,Consolas,monospace" font-size="13">[1781086775] Starting 'Example server' with Embedded Rust SSH -&gt; 127.0.0.1:1080</text>
  <text x="276" y="565" fill="#e8eef2" font-family="Menlo,Consolas,monospace" font-size="13">[1781086776] Tunnel is running</text>
  <text x="276" y="590" fill="#e8eef2" font-family="Menlo,Consolas,monospace" font-size="13">[1781086777] Proxy verification OK, public IP hidden</text>
</svg>
